<svg width="52" height="56" viewBox="0 0 52 56" fill="none" xmlns="http://www.w3.org/2000/svg">
<path d="M50.9915 27.5172L48.7424 25.2681V3.86854L50.6321 1.97887C51.0026 1.60841 51.0026 1.00773 50.6321 0.637382C50.2615 0.266928 49.661 0.266928 49.2905 0.637382L47.4008 2.52706H26.001L23.7521 0.278084C23.3816 -0.0923693 22.7809 -0.0923693 22.4106 0.278084C22.0401 0.648538 22.0401 1.24923 22.4106 1.61957L24.5635 3.77251L17.8865 32.0667C17.3359 32.7546 17.1516 33.6717 17.4095 34.5283C17.6965 35.4812 18.4806 36.1961 19.4559 36.3941L23.7139 37.2584C24.5211 37.4223 25.2077 37.9326 25.5973 38.6584C25.9869 39.3842 26.0329 40.2382 25.7234 41.0015C25.22 42.2433 23.9028 42.9433 22.5925 42.6652L6.64041 39.2856C4.23853 38.7766 1.81686 40.1402 1.00584 42.4572C0.535527 43.8009 0.672793 45.2795 1.38231 46.5136C2.09194 47.7479 3.30064 48.6105 4.69813 48.8801L4.76419 48.8929C6.02124 49.1354 7.08874 49.9219 7.69304 51.0507C8.29723 52.1794 8.3599 53.5038 7.86465 54.6846C7.66198 55.1678 7.88948 55.7236 8.37259 55.9263C8.49246 55.9765 8.61671 56.0004 8.739 56.0004C9.10978 56.0004 9.46186 55.7816 9.61411 55.4183C10.3312 53.7083 10.2406 51.79 9.36539 50.1552C8.49028 48.5205 6.94404 47.3814 5.12371 47.0302L5.05765 47.0174C4.20157 46.8522 3.46142 46.3239 3.02688 45.568C2.59233 44.8121 2.50833 43.9067 2.79642 43.0838C3.29299 41.6649 4.77666 40.8303 6.24688 41.1416L22.1986 44.5212C24.4105 44.9899 26.6317 43.8094 27.4811 41.7143C28.0034 40.4263 27.9258 38.9854 27.2684 37.761C26.6111 36.5364 25.453 35.6756 24.0909 35.3991L19.8329 34.5348C19.4094 34.4489 19.2672 34.119 19.2258 33.9812C19.1921 33.8696 19.1443 33.6167 19.2893 33.3624L47.4965 26.7061L49.6495 28.859C49.8348 29.0442 50.0777 29.1369 50.3204 29.1369C50.5631 29.1369 50.806 29.0444 50.9913 28.859C51.3619 28.4883 51.3619 27.8877 50.9915 27.5172ZM45.5035 4.42428L36.701 13.2267L27.8984 4.42428H45.5035ZM26.1406 5.34959L35.3593 14.5683L20.4459 29.4818L26.1406 5.34959ZM21.7875 30.8235L36.701 15.91L45.9197 25.1287L21.7875 30.8235ZM46.845 23.3708L38.0425 14.5683L46.845 5.76576V23.3708Z" fill="#071F41"/>
</svg>
