<svg width="56" height="42" viewBox="0 0 56 42" fill="none" xmlns="http://www.w3.org/2000/svg">
<path d="M54.9145 4.25427C54.9109 4.25427 54.9072 4.25427 54.9037 4.25427H51.2239V2.99511C51.2437 2.49673 50.9213 2.04884 50.4423 1.90962C47.8877 1.24015 45.257 0.904469 42.616 0.910982C38.2741 0.910982 32.3582 1.88792 27.9837 6.33839C23.6418 1.8445 17.6825 0.910982 13.3514 0.910982C10.7104 0.904469 8.07978 1.24015 5.5251 1.90962C5.04613 2.04884 4.72374 2.49673 4.74355 2.99511V4.24341H1.08548C0.486024 4.24341 0 4.72943 0 5.32889V39.9992C0 40.5986 0.486024 41.0847 1.08548 41.0847C1.27191 41.0841 1.45509 41.0355 1.61737 40.9436C1.72592 40.8893 12.5807 34.9517 27.7341 38.7726H27.8969H27.9946C28.0811 38.783 28.1685 38.783 28.2551 38.7726C43.4518 34.9191 54.3066 40.8459 54.3718 40.9436C54.7076 41.1374 55.1214 41.1374 55.4573 40.9436C55.791 40.7509 55.9977 40.3955 56 40.01V5.33975C56 4.74029 55.5141 4.25427 54.9145 4.25427ZM2.17096 38.2733V6.42523H4.76526V33.6491C4.75848 34.2486 5.23894 34.74 5.8384 34.7468C5.89701 34.7475 5.95563 34.7434 6.01357 34.7346C8.25916 34.3917 10.5263 34.2103 12.7978 34.1919C15.9444 34.1373 19.0777 34.6106 22.0678 35.5921C15.3155 34.7756 8.46635 35.6985 2.17096 38.2733ZM12.7978 32.0317C10.8235 32.0362 8.85142 32.1631 6.89281 32.4117V3.85264C9.00624 3.38181 11.1644 3.14151 13.3297 3.13622C17.3894 3.13622 22.9905 4.06973 26.8765 8.45508L26.9091 35.4944C24.6513 34.0182 20.2442 32.0317 12.7978 32.0317ZM29.0801 8.45508C32.9661 4.11315 38.5672 3.13622 42.6269 3.13622C44.792 3.1426 46.9502 3.38276 49.0638 3.85264V32.4117C47.1161 32.1608 45.155 32.0303 43.1913 32.0209C35.7883 32.0209 31.3704 34.0073 29.0801 35.4836V8.45508ZM53.8182 38.2733C47.5094 35.6914 40.6445 34.7684 33.8779 35.5921C36.8821 34.607 40.0304 34.1336 43.1913 34.1919C45.4771 34.2046 47.7589 34.3824 50.019 34.7237C50.6117 34.8137 51.1651 34.4061 51.2551 33.8134C51.2639 33.7555 51.268 33.6969 51.2673 33.6383V6.42523H53.8616L53.8182 38.2733Z" fill="#071F41"/>
</svg>
