<svg width="56" height="52" viewBox="0 0 56 52" fill="none" xmlns="http://www.w3.org/2000/svg">
<path d="M55.9927 37.0843C54.3202 23.6667 41.8004 21.6788 38.2667 21.3858V9.20005C38.2667 9.11619 38.1491 0.800049 28 0.800049C17.8509 0.800049 17.7333 9.11619 17.7333 9.20005V21.3858C14.1996 21.6788 1.68483 23.6667 0.00729167 37.0843C0.00729167 37.103 0 37.1777 0 37.2001V40.9334C0 41.4488 0.417904 41.8667 0.933333 41.8667H5.6V43.7334H2.8C2.28457 43.7334 1.86667 44.1513 1.86667 44.6667C1.86667 46.9262 3.23203 51.2001 8.4 51.2001C13.568 51.2001 14.9333 46.9262 14.9333 44.6667C14.9333 44.1513 14.5154 43.7334 14 43.7334H11.2V41.8667H25.2V43.7334H22.4C21.8846 43.7334 21.4667 44.1513 21.4667 44.6667C21.4667 46.9262 22.832 51.2001 28 51.2001C33.168 51.2001 34.5333 46.9262 34.5333 44.6667C34.5333 44.1513 34.1154 43.7334 33.6 43.7334H30.8V41.8667H44.8V43.7334H42C41.4846 43.7334 41.0667 44.1513 41.0667 44.6667C41.0667 46.9262 42.432 51.2001 47.6 51.2001C52.768 51.2001 54.1333 46.9262 54.1333 44.6667C54.1333 44.1513 53.7154 43.7334 53.2 43.7334H50.4V41.8667H55.0667C55.5821 41.8667 56 41.4488 56 40.9334V37.2001C56 37.1786 56 37.1066 55.9927 37.0843ZM19.6 9.20005C19.6 8.93299 19.6934 2.66672 28 2.66672C36.2487 2.66672 36.4 8.93664 36.4 9.20005V21.3334H34.5333V15.7334H32.6667V21.3334H19.6V9.20005ZM10.8268 25.0107C13.3041 23.9228 15.9633 23.3085 18.6667 23.2H37.3333C40.0367 23.3085 42.6959 23.9228 45.1732 25.0107C49.88 26.9584 53.2223 31.2295 53.9811 36.2667H2.01888C2.77767 31.2295 6.11999 26.9584 10.8268 25.0107ZM8.4 49.3334C6.12591 49.5043 4.1166 47.8627 3.83132 45.6H12.9641C12.6679 47.855 10.6686 49.4902 8.4 49.3334ZM9.33333 43.7334H7.46667V41.8667H9.33333V43.7334ZM28 49.3334C25.7259 49.5043 23.7166 47.8627 23.4313 45.6H32.5641C32.2679 47.855 30.2686 49.4902 28 49.3334ZM28.9333 43.7334H27.0667V41.8667H28.9333V43.7334ZM47.6 49.3334C45.3241 49.507 43.312 47.8646 43.0268 45.6H52.1641C51.8679 47.855 49.8686 49.4902 47.6 49.3334ZM48.5333 43.7334H46.6667V41.8667H48.5333V43.7334ZM54.1333 40H1.86667V38.1334H54.1333V40Z" fill="#071F41"/>
</svg>
